<svg xmlns="http://www.w3.org/2000/svg" id="Ebene_2" data-name="Ebene 2" viewBox="0 0 1910.21 1910.21"><defs><style>      .cls-1 {        fill: #ffffff;      }      .cls-1, .cls-2 {        stroke-width: 0px;      }      .cls-2 {        fill: none;      }    </style></defs><g id="Ebene_1-2" data-name="Ebene 1"><rect class="cls-2" width="1910.21" height="1910.21"></rect><g><path class="cls-1" d="M1572.66,1229.21c-5.41-33.97-16.42-65.93-34.75-95.18-10.52-16.78-23.42-31.63-36.89-46-21.64-23.09-45.33-43.74-72.21-60.64-19.3-12.15-40.16-20.98-61.17-29.49-51.46-20.84-103.9-38.96-156.35-57.06-19.85-6.85-39.98-12.81-59.28-21.23-24.81-10.8-48.85-22.91-71.37-38.05-34.33-23.12-55.62-55.05-65.24-94.97-8.54-35.41-7.57-70.82,1.72-105.94,17.13-64.87,68.45-120.43,132.78-144.36,24.71-9.2,50.29-14.19,76.53-16.08,27.75-1.99,55.35-1.15,82.77,3.45,54.8,9.26,102.54,33.25,143.09,70.98,18.4,17.14,35.24,35.96,52.58,54.23,2.92,3.07,5.56,4.39,9.5,2.89.76-.3,1.6-.4,2.83-.69-.66-1.89-1.23-3.61-1.86-5.3-10.55-27.71-21.08-55.46-31.63-83.21-5.62-14.79-11.27-29.58-16.93-44.37-.57-1.5-.81-3.16-2.88-3.73-4.67-1.26-9.17-3.13-13.86-4.18-20.65-4.6-41.31-9.17-62.02-13.41-32.89-6.73-66.11-11.03-99.65-12.29-28.08-1.06-56.01.15-83.79,4.66-29.64,4.78-58.16,13.07-85.34,25.92-44.53,21.04-80.78,52.04-110.18,91.32-1.17,1.59-2.41,3.13-3.82,4.96-1.06-1.56-1.89-2.77-2.65-4-12.74-21.1-29.01-39.05-48.61-53.93-24.98-18.94-53-31.98-82.4-42.3-27.69-9.68-56.37-13.53-85.44-14.7-30.99-1.23-62.02-2.64-93.01-2.74-118.6-.39-237.19-.3-355.78-.36-1.29,0-2.58.24-3.88.36v10.55c5.02.36,9.68.6,14.34,1.02,11.52,1.03,22.79,3.04,33.31,8.12,9.89,4.78,17.16,11.99,20.62,22.63,1.53,4.76,3.13,9.53,4.33,14.37,4.69,18.55,5.78,37.52,5.78,56.58.03,286.07.06,572.17-.06,858.24,0,15.66-.87,31.35-1.86,46.99-.73,11.15-2.86,22.12-6.65,32.73-3.13,8.69-8.3,15.57-16.5,19.93-3.25,1.71-6.62,3.21-10.04,4.45-9.47,3.43-19.33,5.05-29.31,6.01-4.6.46-9.23.84-14.07,1.26v9.92h282.25v-9.83c-7.06-.48-13.74-.79-20.35-1.42-8.66-.81-17.1-2.61-25.22-5.92-10.37-4.23-18.19-11.12-22.16-21.76-2.19-5.92-4.27-11.94-5.65-18.1-3.52-15.69-4.18-31.68-4.18-47.74v-418.13h6.04c16.35,0,32.68.03,49.03,0,12.35-.03,24.68.12,37.03-.21,29.49-.78,59.01-1.74,88.5-2.79,3.61-.12,5.71.99,7.64,4.02,13.95,21.77,28.11,43.38,42.15,65.11,22.15,34.3,44.04,68.78,66.44,102.93,15.09,22.99,30.78,45.64,46.41,68.27,36.34,52.73,73.44,104.92,113.28,155.12,19.69,24.84,39.86,49.31,62.68,71.4,43.59,42.27,96.02,64.51,156.32,68.9,17.17,1.26,34.33.94,51.49-.03,26.88-1.44,53.39-5.2,79.54-11.6,16.87-4.15,33.1-10.22,49.45-15.9,12.36-4.29,24.08-9.77,35.27-16.5,28.59-17.23,52.76-39.56,74.22-64.94,40.29-47.65,64.76-102.21,71.22-164.53,3.24-31.32,2.85-62.62-2.11-93.76ZM826,992.89c-21.7,14.82-45.87,24.29-71.21,30.82-21.53,5.56-43.41,8.98-65.6,10.22-13.83.75-27.66,1.23-41.49,1.29-34.36.18-68.72.06-103.05.06h-6.44v-512.4c1.36-.15,2.62-.39,3.91-.39,33.16,0,66.38-.39,99.54.18,36.65.67,72.78,5.26,107.83,16.69,31.65,10.31,60.21,25.94,84.12,49.51,13.41,13.2,24.01,28.53,33.91,44.4,22.1,35.45,37.91,73.42,45.34,114.63,7.6,42.21,7.52,84.36-3.55,125.99-13.23,49.72-40.55,89.89-83.31,119.02ZM1502.58,1408.8c-12.03,31.84-31.62,58.5-56.25,81.68-27.02,25.46-58.98,42.11-94.24,52.82-7.78,2.37-15.66,4.59-23.57,6.64-13.35,3.43-26.78,2.64-40.13-.18-19.78-4.21-37.94-12.51-55.26-22.69-30.57-18.01-56.93-41.12-81.28-66.77-18.16-19.19-33.82-40.37-50.17-61.03-33.16-41.85-63.98-85.44-94.64-129.09-25.07-35.74-49.9-71.72-73.96-108.16-29.82-45.25-58.77-91.06-88.08-136.63-.78-1.23-1.53-2.52-2.52-4.18,53.54-30.66,100.23-69,136.18-119.8,4.48,8.84,8.48,17.08,12.84,25.13,14.85,27.48,33.13,52.37,56.55,73.29,16.53,14.79,35.38,26.03,55.04,36.04,33.34,16.95,67.91,30.99,102.96,43.89,35.17,12.96,70.59,25.23,105.76,38.18,29.06,10.73,57.75,22.58,85.25,36.98,33.4,17.47,62.14,40.59,85.02,70.77,18.19,23.99,28.52,50.99,32.1,80.78,4.21,35.05.93,69.27-11.6,102.33Z"></path></g></g></svg>
