<svg xmlns="http://www.w3.org/2000/svg" id="Ebene_2" data-name="Ebene 2" viewBox="0 0 1910.21 4324.73"><defs><style>      .cls-1 {        fill: #fff;        stroke-width: 0px;      }    </style></defs><g id="Ebene_1-2" data-name="Ebene 1"><g><path class="cls-1" d="M909.31,2785.09c11.06-41.64,11.15-83.79,3.55-125.99-7.43-41.21-23.24-79.18-45.34-114.63-9.89-15.87-20.5-31.2-33.91-44.4-23.9-23.57-52.46-39.2-84.12-49.51-35.05-11.43-71.18-16.02-107.83-16.69-33.16-.57-66.38-.18-99.54-.18-1.29,0-2.55.24-3.91.39v512.4h6.44c34.33,0,68.69.12,103.05-.06,13.83-.06,27.65-.54,41.49-1.29,22.18-1.23,44.07-4.66,65.6-10.22,25.34-6.53,49.51-16,71.21-30.82,42.75-29.13,70.08-69.29,83.31-119.02Z"></path><path class="cls-1" d="M1482.08,3136.9c-22.88-30.18-51.62-53.3-85.02-70.77-27.51-14.4-56.19-26.25-85.25-36.98-35.17-12.95-70.59-25.22-105.76-38.18-35.05-12.9-69.62-26.94-102.96-43.89-19.66-10.01-38.51-21.25-55.04-36.04-23.42-20.92-41.7-45.81-56.55-73.29-4.36-8.05-8.36-16.29-12.84-25.13-35.96,50.8-82.64,89.14-136.18,119.8.99,1.65,1.74,2.94,2.52,4.18,29.31,45.57,58.26,91.38,88.08,136.63,24.05,36.44,48.88,72.42,73.96,108.16,30.66,43.65,61.48,87.24,94.64,129.09,16.35,20.65,32.01,41.84,50.17,61.03,24.35,25.64,50.71,48.76,81.28,66.77,17.32,10.19,35.48,18.49,55.26,22.69,13.35,2.83,26.78,3.61,40.13.18,7.9-2.05,15.79-4.27,23.57-6.64,35.27-10.71,67.22-27.36,94.24-52.82,24.62-23.18,44.22-49.84,56.25-81.68,12.54-33.06,15.82-67.28,11.6-102.33-3.58-29.79-13.92-56.78-32.1-80.78Z"></path><path class="cls-1" d="M0,0v4324.73h1910.21V0H0ZM481.36,3835.56h-90.45v32.97h76.53v17.14h-76.53v44.98h-19.2v-112.06h109.65v16.97ZM570.11,3930.65h-19.2v-112.06h19.2v112.06ZM775.76,3930.65h-16.97l-87.54-88.37v88.37h-18.58v-112.06h20.49l83.87,84.99v-84.99h18.73v112.06ZM962.79,3930.65l-14.41-27.07h-71.9l-14.24,27.07h-20.81l60.68-112.06h21.14l60.51,112.06h-20.96ZM1172.7,3930.65h-16.97l-87.54-88.37v88.37h-18.58v-112.06h20.49l83.87,84.99v-84.99h18.73v112.06ZM1316.02,3934.03c-41.92,0-68.34-22.58-68.34-59.42s26.42-59.39,69.17-59.39c27.54,0,48.03,11.86,58.42,27.86l-17.94,8.98c-8.31-13.77-22.58-19.88-40.81-19.88-29.62,0-49.32,14.41-49.32,42.42s19.7,42.42,49.32,42.42c18.23,0,32.65-5.9,41.13-19.85l17.76,8.81c-10.54,16.32-31.03,28.04-59.39,28.04ZM1556.84,3930.65h-111.59v-112.06h109.97v16.79h-90.92v29.94h76.53v16.82h-76.53v31.68h92.53v16.82ZM1574.76,3234.19c-6.47,62.32-30.94,116.88-71.22,164.53-21.46,25.38-45.64,47.71-74.22,64.94-11.19,6.73-22.91,12.21-35.27,16.5-16.35,5.69-32.59,11.76-49.45,15.9-26.15,6.41-52.67,10.17-79.54,11.6-17.16.97-34.33,1.29-51.49.03-60.3-4.39-112.73-26.63-156.32-68.9-22.82-22.09-42.99-46.56-62.68-71.4-39.83-50.2-76.93-102.38-113.28-155.12-15.63-22.63-31.32-45.28-46.41-68.27-22.4-34.15-44.29-68.63-66.44-102.93-14.04-21.73-28.2-43.35-42.15-65.11-1.92-3.03-4.03-4.15-7.64-4.02-29.49,1.05-59.01,2.01-88.5,2.79-12.36.34-24.68.18-37.03.21-16.36.03-32.68,0-49.03,0h-6.04v418.13c0,16.06.66,32.05,4.18,47.74,1.38,6.16,3.46,12.18,5.65,18.1,3.97,10.64,11.79,17.53,22.16,21.76,8.12,3.31,16.56,5.11,25.22,5.92,6.61.63,13.29.93,20.35,1.42v9.83h-282.25v-9.92c4.84-.42,9.47-.81,14.07-1.26,9.98-.96,19.84-2.58,29.31-6.01,3.42-1.23,6.79-2.74,10.04-4.45,8.21-4.36,13.38-11.24,16.5-19.93,3.79-10.61,5.92-21.58,6.65-32.73.99-15.63,1.86-31.32,1.86-46.99.12-286.07.09-572.18.06-858.24,0-19.06-1.09-38.03-5.78-56.58-1.2-4.84-2.79-9.61-4.33-14.37-3.46-10.64-10.73-17.86-20.62-22.63-10.52-5.08-21.8-7.09-33.31-8.12-4.66-.42-9.32-.66-14.34-1.02v-10.55c1.3-.12,2.59-.36,3.88-.36,118.59.06,237.19-.03,355.78.36,30.99.1,62.02,1.5,93.01,2.74,29.07,1.17,57.75,5.02,85.44,14.7,29.4,10.31,57.42,23.36,82.4,42.3,19.6,14.88,35.86,32.83,48.61,53.93.76,1.23,1.59,2.44,2.65,4,1.41-1.83,2.64-3.37,3.82-4.96,29.4-39.29,65.65-70.28,110.18-91.32,27.18-12.84,55.71-21.14,85.34-25.92,27.78-4.51,55.71-5.72,83.79-4.66,33.55,1.26,66.77,5.56,99.65,12.29,20.71,4.23,41.36,8.81,62.02,13.41,4.69,1.05,9.2,2.91,13.86,4.18,2.07.57,2.31,2.22,2.88,3.73,5.66,14.79,11.31,29.58,16.93,44.37,10.55,27.75,21.07,55.49,31.62,83.21.63,1.69,1.2,3.41,1.86,5.3-1.23.29-2.08.39-2.83.69-3.93,1.5-6.58.18-9.5-2.89-17.34-18.27-34.18-37.09-52.58-54.23-40.55-37.72-88.29-61.72-143.09-70.98-27.42-4.59-55.02-5.44-82.77-3.45-26.25,1.89-51.82,6.88-76.53,16.08-64.34,23.93-115.65,79.49-132.78,144.36-9.29,35.11-10.25,70.52-1.72,105.94,9.62,39.93,30.91,71.85,65.24,94.97,22.52,15.15,46.56,27.26,71.37,38.05,19.3,8.42,39.43,14.37,59.28,21.23,52.45,18.09,104.89,36.22,156.35,57.06,21.01,8.51,41.88,17.34,61.17,29.49,26.88,16.9,50.57,37.55,72.21,60.64,13.47,14.37,26.36,29.22,36.89,46,18.33,29.25,29.34,61.2,34.75,95.18,4.95,31.14,5.35,62.44,2.11,93.76Z"></path><polygon class="cls-1" points="885.14 3887.26 939.9 3887.26 912.5 3835.39 885.14 3887.26"></polygon></g></g></svg>